<svg xmlns="http://www.w3.org/2000/svg" viewBox="0 0 46.93 6.41"><g id="Ebene_2" data-name="Ebene 2"><g id="Ebene_2-2" data-name="Ebene 2"><path d="M43.72,6.39a4.3,4.3,0,0,1-2.88-1.21c-.62-.59-1.18-1.24-1.83-1.79a2.89,2.89,0,0,0-4,0,6,6,0,0,0-.57.56c-3.25,3.24-4.93,3.26-8.14.06-1.95-1.95-3.41-2-5.33-.06-.35.34-.67.69-1,1a4.11,4.11,0,0,1-6.12.06c-.43-.4-.81-.84-1.24-1.24-1.67-1.59-3.25-1.59-4.89,0C7.07,4.36,6.54,5,5.93,5.47A4.13,4.13,0,0,1,.51,5.31,1.28,1.28,0,0,1,.22,3.58a1,1,0,0,1,1.51-.43c1.74,1.39,2.75.24,3.88-.93,2.83-2.91,6.08-2.9,9,0l.45.45c1.58,1.59,2.1,1.63,3.63,0,1.92-2.1,4.09-3.24,7-2.18a8,8,0,0,1,2.89,2.22c1.55,1.58,2.06,1.56,3.65,0A14.14,14.14,0,0,1,33.91,1c2.38-1.66,5.16-1.23,7.48,1.12,1.09,1.1,2,2.44,3.87,1.07a1,1,0,0,1,1.49.5,1.22,1.22,0,0,1-.27,1.6A4.33,4.33,0,0,1,43.72,6.39Z"/></g></g></svg>